<svg width="187" height="97" viewBox="0 0 187 97" fill="none" xmlns="http://www.w3.org/2000/svg">
	<path
		d="M21.7815 47.4854H14.6295C14.0215 47.4854 13.5735 47.3574 13.2855 47.1014C13.0295 46.8134 12.9015 46.3654 12.9015 45.7574V14.6533C12.9015 14.0453 13.0295 13.6133 13.2855 13.3573C13.5735 13.0693 14.0215 12.9253 14.6295 12.9253H22.3575C22.8695 12.9253 23.2855 13.0373 23.6055 13.2613C23.9575 13.4853 24.2775 13.8533 24.5655 14.3653L28.8855 22.1894C29.0455 22.4774 29.1735 22.6853 29.2695 22.8133C29.3975 22.9413 29.5575 23.0053 29.7495 23.0053H30.1815C30.3735 23.0053 30.5175 22.9413 30.6135 22.8133C30.7415 22.6853 30.8855 22.4774 31.0455 22.1894L35.3175 14.3653C35.6055 13.8533 35.9095 13.4853 36.2295 13.2613C36.5815 13.0373 37.0135 12.9253 37.5255 12.9253H45.3015C45.9095 12.9253 46.3415 13.0693 46.5975 13.3573C46.8855 13.6133 47.0295 14.0453 47.0295 14.6533V45.7574C47.0295 46.3654 46.8855 46.8134 46.5975 47.1014C46.3415 47.3574 45.9095 47.4854 45.3015 47.4854H37.9095C37.3015 47.4854 36.8535 47.3574 36.5655 47.1014C36.3095 46.8134 36.1815 46.3654 36.1815 45.7574V28.8614L33.3495 34.0933C33.0615 34.6373 32.7095 35.0373 32.2935 35.2933C31.9095 35.5173 31.4135 35.6293 30.8055 35.6293H28.8855C28.2775 35.6293 27.7655 35.5173 27.3495 35.2933C26.9655 35.0373 26.6295 34.6373 26.3415 34.0933L23.5095 28.8614V45.7574C23.5095 46.3654 23.3655 46.8134 23.0775 47.1014C22.8215 47.3574 22.3895 47.4854 21.7815 47.4854Z"
	/>
	<path
		d="M59.3959 47.4854C58.7879 47.4854 58.3399 47.3574 58.0519 47.1014C57.7959 46.8134 57.6679 46.3654 57.6679 45.7574V40.0453C57.6679 39.4373 57.7959 39.0053 58.0519 38.7493C58.3399 38.4613 58.7879 38.3173 59.3959 38.3173H64.1479V22.1894H59.3959C58.7879 22.1894 58.3399 22.0614 58.0519 21.8054C57.7959 21.5174 57.6679 21.0693 57.6679 20.4613V14.6533C57.6679 14.0453 57.7959 13.6133 58.0519 13.3573C58.3399 13.0693 58.7879 12.9253 59.3959 12.9253H79.8441C80.4521 12.9253 80.8842 13.0693 81.1402 13.3573C81.4282 13.6133 81.5722 14.0453 81.5722 14.6533V20.4613C81.5722 21.0693 81.4282 21.5174 81.1402 21.8054C80.8842 22.0614 80.4521 22.1894 79.8441 22.1894H75.188V38.3173H79.8441C80.4521 38.3173 80.8842 38.4613 81.1402 38.7493C81.4282 39.0053 81.5722 39.4373 81.5722 40.0453V45.7574C81.5722 46.3654 81.4282 46.8134 81.1402 47.1014C80.8842 47.3574 80.4521 47.4854 79.8441 47.4854H59.3959Z"
	/>
	<path
		d="M153.383 47.4854C152.775 47.4854 152.327 47.3574 152.039 47.1014C151.783 46.8134 151.655 46.3654 151.655 45.7574V40.0453C151.655 39.4373 151.783 39.0053 152.039 38.7493C152.327 38.4613 152.775 38.3173 153.383 38.3173H158.135V22.1894H153.383C152.775 22.1894 152.327 22.0614 152.039 21.8054C151.783 21.5174 151.655 21.0693 151.655 20.4613V14.6533C151.655 14.0453 151.783 13.6133 152.039 13.3573C152.327 13.0693 152.775 12.9253 153.383 12.9253H173.831C174.439 12.9253 174.871 13.0693 175.127 13.3573C175.415 13.6133 175.559 14.0453 175.559 14.6533V20.4613C175.559 21.0693 175.415 21.5174 175.127 21.8054C174.871 22.0614 174.439 22.1894 173.831 22.1894H169.175V38.3173H173.831C174.439 38.3173 174.871 38.4613 175.127 38.7493C175.415 39.0053 175.559 39.4373 175.559 40.0453V45.7574C175.559 46.3654 175.415 46.8134 175.127 47.1014C174.871 47.3574 174.439 47.4854 173.831 47.4854H153.383Z"
	/>
	<path
		d="M26.928 96.2665H11.808C7.808 96.2665 4.832 95.4665 2.88 93.8665C0.960001 92.2665 0 89.8025 0 86.4745V71.4984C0 68.1704 0.960001 65.7064 2.88 64.1064C4.832 62.5064 7.808 61.7065 11.808 61.7065H23.808C24.416 61.7065 24.848 61.8505 25.104 62.1385C25.392 62.3945 25.536 62.8264 25.536 63.4344V69.2425C25.536 69.8505 25.392 70.2985 25.104 70.5865C24.848 70.8425 24.416 70.9705 23.808 70.9705H13.824C12.832 70.9705 12.096 71.1785 11.616 71.5945C11.136 71.9785 10.896 72.5705 10.896 73.3705V84.8424C10.896 85.6424 11.072 86.2344 11.424 86.6184C11.808 87.0024 12.368 87.1945 13.104 87.1945H17.76V79.7065C17.76 79.0985 17.888 78.6665 18.144 78.4105C18.432 78.1225 18.88 77.9785 19.488 77.9785H26.928C27.536 77.9785 27.968 78.1225 28.224 78.4105C28.512 78.6665 28.656 79.0985 28.656 79.7065V94.5385C28.656 95.1465 28.512 95.5945 28.224 95.8825C27.968 96.1385 27.536 96.2665 26.928 96.2665Z"
	/>
	<path
		d="M51.8404 71.7864L49.5844 79.0825H57.1204L54.8644 71.7864C54.7364 71.4984 54.5924 71.2904 54.4324 71.1624C54.3044 71.0344 54.1444 70.9705 53.9524 70.9705H52.7524C52.5604 70.9705 52.3844 71.0344 52.2244 71.1624C52.0964 71.2904 51.9684 71.4984 51.8404 71.7864ZM49.1044 94.5385C49.1044 95.1465 48.9604 95.5945 48.6724 95.8825C48.4164 96.1385 47.9844 96.2665 47.3764 96.2665H40.3204C39.7124 96.2665 39.2644 96.1385 38.9764 95.8825C38.7204 95.5945 38.5924 95.1465 38.5924 94.5385V81.8665C38.5924 80.9065 38.7364 79.8024 39.0244 78.5544C39.3444 77.3064 39.8244 75.8505 40.4644 74.1865L44.6404 63.2904C44.8324 62.7464 45.1204 62.3465 45.5044 62.0905C45.9204 61.8345 46.4484 61.7065 47.0884 61.7065H60.0004C60.6084 61.7065 61.1044 61.8345 61.4884 62.0905C61.9044 62.3465 62.2084 62.7464 62.4004 63.2904L66.5764 74.1865C67.2164 75.8505 67.6804 77.3064 67.9684 78.5544C68.2884 79.8024 68.4484 80.9065 68.4484 81.8665V94.5385C68.4484 95.1465 68.3044 95.5945 68.0164 95.8825C67.7604 96.1385 67.3284 96.2665 66.7204 96.2665H59.4724C58.8324 96.2665 58.3524 96.1385 58.0324 95.8825C57.7444 95.5945 57.6004 95.1465 57.6004 94.5385V87.8185H49.1044V94.5385Z"
	/>
	<path
		d="M88.0549 96.2665H80.9029C80.2949 96.2665 79.8469 96.1385 79.5589 95.8825C79.3029 95.5945 79.1749 95.1465 79.1749 94.5385V63.4344C79.1749 62.8264 79.3029 62.3945 79.5589 62.1385C79.8469 61.8505 80.2949 61.7065 80.9029 61.7065H88.6309C89.1429 61.7065 89.5589 61.8185 89.8789 62.0424C90.2309 62.2665 90.5509 62.6345 90.8389 63.1465L95.1589 70.9705C95.3189 71.2585 95.4469 71.4665 95.5429 71.5945C95.6709 71.7225 95.8309 71.7864 96.0229 71.7864H96.4549C96.6469 71.7864 96.7909 71.7225 96.8869 71.5945C97.0149 71.4665 97.1589 71.2585 97.3189 70.9705L101.591 63.1465C101.879 62.6345 102.183 62.2665 102.503 62.0424C102.855 61.8185 103.287 61.7065 103.799 61.7065H111.575C112.183 61.7065 112.615 61.8505 112.871 62.1385C113.159 62.3945 113.303 62.8264 113.303 63.4344V94.5385C113.303 95.1465 113.159 95.5945 112.871 95.8825C112.615 96.1385 112.183 96.2665 111.575 96.2665H104.183C103.575 96.2665 103.127 96.1385 102.839 95.8825C102.583 95.5945 102.455 95.1465 102.455 94.5385V77.6425L99.6229 82.8745C99.3349 83.4185 98.9829 83.8185 98.5669 84.0745C98.1829 84.2985 97.6869 84.4105 97.0789 84.4105H95.1589C94.5509 84.4105 94.0389 84.2985 93.6229 84.0745C93.2389 83.8185 92.9029 83.4185 92.6149 82.8745L89.7829 77.6425V94.5385C89.7829 95.1465 89.6389 95.5945 89.3509 95.8825C89.0949 96.1385 88.6629 96.2665 88.0549 96.2665Z"
	/>
	<path
		d="M148.71 96.2665H126.438C125.83 96.2665 125.382 96.1385 125.094 95.8825C124.838 95.5945 124.71 95.1465 124.71 94.5385V63.4344C124.71 62.8264 124.838 62.3945 125.094 62.1385C125.382 61.8505 125.83 61.7065 126.438 61.7065H148.71C149.318 61.7065 149.75 61.8505 150.006 62.1385C150.294 62.3945 150.438 62.8264 150.438 63.4344V69.0504C150.438 69.6584 150.294 70.1064 150.006 70.3944C149.75 70.6504 149.318 70.7784 148.71 70.7784H135.462V74.4745H144.822C145.43 74.4745 145.862 74.6184 146.118 74.9064C146.406 75.1624 146.55 75.5945 146.55 76.2025V81.3384C146.55 81.9464 146.406 82.3944 146.118 82.6824C145.862 82.9384 145.43 83.0664 144.822 83.0664H135.462V87.1945H148.71C149.318 87.1945 149.75 87.3384 150.006 87.6264C150.294 87.8824 150.438 88.3145 150.438 88.9225V94.5385C150.438 95.1465 150.294 95.5945 150.006 95.8825C149.75 96.1385 149.318 96.2665 148.71 96.2665Z"
	/>
	<path
		d="M176.948 96.2665H161.78C161.172 96.2665 160.724 96.1385 160.436 95.8825C160.18 95.5945 160.052 95.1465 160.052 94.5385V88.9225C160.052 88.3145 160.18 87.8824 160.436 87.6264C160.724 87.3384 161.172 87.1945 161.78 87.1945H174.692C175.108 87.1945 175.412 87.0665 175.604 86.8105C175.828 86.5225 175.94 86.1865 175.94 85.8025C175.94 85.2585 175.828 84.8584 175.604 84.6024C175.412 84.3464 175.108 84.2024 174.692 84.1704L167.492 83.1624C165.252 82.8424 163.444 82.1064 162.068 80.9544C160.724 79.8024 160.052 77.8825 160.052 75.1945V70.1544C160.052 67.4345 160.932 65.3545 162.692 63.9145C164.452 62.4425 166.884 61.7065 169.988 61.7065H183.428C184.036 61.7065 184.468 61.8505 184.724 62.1385C185.012 62.3945 185.156 62.8264 185.156 63.4344V69.1465C185.156 69.7545 185.012 70.2024 184.724 70.4904C184.468 70.7464 184.036 70.8745 183.428 70.8745H172.244C171.828 70.8745 171.508 71.0185 171.284 71.3065C171.06 71.5625 170.948 71.8985 170.948 72.3145C170.948 72.7305 171.06 73.0825 171.284 73.3705C171.508 73.6585 171.828 73.8184 172.244 73.8504L179.396 74.8105C181.636 75.1305 183.444 75.8664 184.82 77.0184C186.196 78.1704 186.884 80.0904 186.884 82.7784V87.8185C186.884 90.5385 185.988 92.6345 184.196 94.1065C182.436 95.5465 180.02 96.2665 176.948 96.2665Z"
	/>
	<path
		class='puzzle'
		d="M127.915 6.66666C127.915 7.22022 127.847 7.75801 127.72 8.27228C127.456 9.33931 128.152 10.6667 129.251 10.6667H134.581C137.527 10.6667 139.915 13.0545 139.915 16V21.3304C139.915 22.4296 138.587 23.1251 137.52 22.8613C137.006 22.7341 136.468 22.6667 135.915 22.6667C132.233 22.6667 129.248 25.6514 129.248 29.3333C129.248 33.0152 132.233 36 135.915 36C136.468 36 137.006 35.9325 137.52 35.8054C138.587 35.5415 139.915 36.2371 139.915 37.3362V42.6667C139.915 45.6122 137.527 48 134.581 48H129.251C128.152 48 127.456 46.6726 127.72 45.6056C127.847 45.0913 127.915 44.5535 127.915 44C127.915 40.3181 124.93 37.3333 121.248 37.3333C117.566 37.3333 114.581 40.3181 114.581 44C114.581 44.5535 114.649 45.0913 114.776 45.6056C115.04 46.6726 114.344 48 113.245 48H107.915C104.969 48 102.581 45.6122 102.581 42.6667V37.3362C102.581 36.2371 101.254 35.5415 100.187 35.8054C99.6728 35.9325 99.135 36 98.5814 36C94.8995 36 91.9148 33.0152 91.9148 29.3333C91.9148 25.6514 94.8995 22.6667 98.5814 22.6667C99.135 22.6667 99.6728 22.7341 100.187 22.8613C101.254 23.1251 102.581 22.4296 102.581 21.3304V16C102.581 13.0545 104.969 10.6667 107.915 10.6667H113.245C114.344 10.6667 115.04 9.33931 114.776 8.27228C114.649 7.75801 114.581 7.22022 114.581 6.66666C114.581 2.98477 117.566 0 121.248 0C124.93 0 127.915 2.98477 127.915 6.66666Z"
	/>
</svg>
	