<svg width="32" height="32" viewBox="0 0 32 32" fill="none" xmlns="http://www.w3.org/2000/svg">
	<path
		d="M16 29.3333C23.3637 29.3333 29.3333 23.3637 29.3333 16C29.3333 8.6362 23.3637 2.66667 16 2.66667C8.6362 2.66667 2.66667 8.6362 2.66667 16C2.66667 23.3637 8.6362 29.3333 16 29.3333Z"
		stroke-width="3" stroke-linecap="round" stroke-linejoin="round" />
	<path
		d="M12.1201 12C12.4336 11.1088 13.0523 10.3574 13.8667 9.87879C14.6811 9.40016 15.6387 9.2252 16.5697 9.3849C17.5007 9.54459 18.3452 10.0286 18.9536 10.7513C19.5619 11.474 19.8948 12.3886 19.8935 13.3333C19.8935 16 15.8935 17.3333 15.8935 17.3333"
		stroke-width="3" stroke-linecap="round" stroke-linejoin="round" />
	<path d="M16 22.6667H16.0133" stroke-width="3" stroke-linecap="round"
		stroke-linejoin="round" />
</svg>
	