<svg width="64" height="64" viewBox="0 0 64 64" fill="none" xmlns="http://www.w3.org/2000/svg">
	<path
		d="M41.3333 11.9997C41.3333 12.5532 41.2659 13.091 41.1387 13.6053C40.8749 14.6723 41.5704 15.9997 42.6696 15.9997H48C50.9455 15.9997 53.3333 18.3875 53.3333 21.333V26.6634C53.3333 27.7626 52.006 28.4581 50.9389 28.1943C50.4247 28.0671 49.8869 27.9997 49.3333 27.9997C45.6514 27.9997 42.6667 30.9844 42.6667 34.6663C42.6667 38.3482 45.6514 41.333 49.3333 41.333C49.8869 41.333 50.4247 41.2655 50.9389 41.1384C52.006 40.8745 53.3333 41.5701 53.3333 42.6692V47.9997C53.3333 50.9452 50.9455 53.333 48 53.333H42.6696C41.5704 53.333 40.8749 52.0057 41.1387 50.9386C41.2659 50.4244 41.3333 49.8866 41.3333 49.333C41.3333 45.6511 38.3486 42.6663 34.6667 42.6663C30.9848 42.6663 28 45.6511 28 49.333C28 49.8866 28.0675 50.4244 28.1946 50.9386C28.4585 52.0057 27.7629 53.333 26.6638 53.333H21.3333C18.3878 53.333 16 50.9452 16 47.9997V42.6692C16 41.5701 14.6726 40.8745 13.6056 41.1384C13.0913 41.2655 12.5536 41.333 12 41.333C8.3181 41.333 5.33333 38.3482 5.33333 34.6663C5.33333 30.9844 8.3181 27.9997 12 27.9997C12.5536 27.9997 13.0913 28.0671 13.6056 28.1943C14.6726 28.4581 16 27.7626 16 26.6634L16 21.333C16 18.3875 18.3878 15.9997 21.3333 15.9997L26.6638 15.9997C27.7629 15.9997 28.4585 14.6723 28.1946 13.6053C28.0675 13.091 28 12.5532 28 11.9997C28 8.31778 30.9848 5.33301 34.6667 5.33301C38.3486 5.33301 41.3333 8.31778 41.3333 11.9997Z"
	/>
</svg>
	