<svg width="32" height="32" viewBox="0 0 32 32" fill="none" xmlns="http://www.w3.org/2000/svg">
	<path
		d="M28 6.12581V12.8967M28 12.8967H20.9756M28 12.8967L22.5678 7.97651C21.3096 6.76308 19.7529 5.87665 18.0431 5.39994C16.3334 4.92324 14.5262 4.87179 12.7902 5.2504C11.0542 5.62901 9.44601 6.42535 8.11567 7.56509C6.78532 8.70484 5.77619 10.1509 5.18244 11.7682M4 25.8742V19.1033M4 19.1033H11.0244M4 19.1033L9.43219 24.0235C10.6904 25.2369 12.2471 26.1234 13.9568 26.6001C15.6666 27.0768 17.4738 27.1282 19.2098 26.7496C20.9458 26.371 22.554 25.5747 23.8843 24.4349C25.2147 23.2952 26.2238 21.8491 26.8176 20.2318"
		stroke-width="3" stroke-linecap="round" stroke-linejoin="round" />
</svg>
	