<svg width="32" height="32" viewBox="0 0 32 32" fill="none" xmlns="http://www.w3.org/2000/svg">
	<path
		d="M16 20C18.2091 20 20 18.2091 20 16C20 13.7909 18.2091 12 16 12C13.7909 12 12 13.7909 12 16C12 18.2091 13.7909 20 16 20Z"
		stroke="#353535" stroke-width="3" stroke-linecap="round" stroke-linejoin="round" />
	<path
		d="M24.9697 19.6367C24.8084 20.0023 24.7602 20.4078 24.8315 20.801C24.9028 21.1942 25.0903 21.5571 25.3697 21.8427L25.4424 21.9155C25.6678 22.1406 25.8466 22.408 25.9686 22.7023C26.0906 22.9966 26.1534 23.312 26.1534 23.6306C26.1534 23.9492 26.0906 24.2647 25.9686 24.559C25.8466 24.8533 25.6678 25.1206 25.4424 25.3458C25.2173 25.5712 24.9499 25.75 24.6556 25.872C24.3613 25.994 24.0459 26.0568 23.7273 26.0568C23.4087 26.0568 23.0932 25.994 22.799 25.872C22.5047 25.75 22.2373 25.5712 22.0121 25.3458L21.9394 25.2731C21.6537 24.9936 21.2909 24.8062 20.8977 24.7349C20.5045 24.6636 20.0989 24.7117 19.7334 24.8731C19.3748 25.0267 19.0691 25.2818 18.8537 25.607C18.6384 25.9322 18.5228 26.3133 18.5212 26.7034V26.9094C18.5212 27.5524 18.2658 28.169 17.8112 28.6236C17.3566 29.0782 16.7399 29.3337 16.097 29.3337C15.454 29.3337 14.8374 29.0782 14.3828 28.6236C13.9282 28.169 13.6727 27.5524 13.6727 26.9094V26.8003C13.6634 26.3991 13.5335 26.01 13.3 25.6836C13.0666 25.3572 12.7403 25.1085 12.3637 24.97C11.9981 24.8087 11.5925 24.7605 11.1993 24.8318C10.8061 24.9031 10.4433 25.0906 10.1576 25.37L10.0849 25.4427C9.85972 25.6681 9.59236 25.847 9.29806 25.969C9.00376 26.091 8.6883 26.1537 8.36972 26.1537C8.05113 26.1537 7.73568 26.091 7.44138 25.969C7.14708 25.847 6.87971 25.6681 6.65457 25.4427C6.42917 25.2176 6.25036 24.9502 6.12836 24.6559C6.00636 24.3616 5.94357 24.0462 5.94357 23.7276C5.94357 23.409 6.00636 23.0936 6.12836 22.7993C6.25036 22.505 6.42917 22.2376 6.65457 22.0124L6.72729 21.9397C7.00673 21.654 7.19418 21.2912 7.26548 20.898C7.33678 20.5048 7.28864 20.0993 7.12729 19.7337C6.97364 19.3751 6.71851 19.0694 6.39331 18.854C6.06811 18.6387 5.68703 18.5231 5.29699 18.5215H5.09093C4.44798 18.5215 3.83136 18.2661 3.37673 17.8115C2.9221 17.3569 2.66669 16.7402 2.66669 16.0973C2.66669 15.4543 2.9221 14.8377 3.37673 14.3831C3.83136 13.9285 4.44798 13.6731 5.09093 13.6731H5.20002C5.60123 13.6637 5.99033 13.5338 6.31675 13.3003C6.64316 13.0669 6.8918 12.7406 7.03032 12.364C7.19167 11.9984 7.23981 11.5928 7.16851 11.1996C7.09721 10.8064 6.90976 10.4436 6.63032 10.1579L6.5576 10.0852C6.3322 9.86003 6.15339 9.59266 6.03139 9.29836C5.90939 9.00406 5.8466 8.6886 5.8466 8.37002C5.8466 8.05144 5.90939 7.73598 6.03139 7.44168C6.15339 7.14738 6.3322 6.88002 6.5576 6.65487C6.78274 6.42947 7.05011 6.25066 7.34441 6.12867C7.63871 6.00667 7.95416 5.94387 8.27275 5.94387C8.59133 5.94387 8.90679 6.00667 9.20109 6.12867C9.49539 6.25066 9.76275 6.42947 9.9879 6.65487L10.0606 6.7276C10.3463 7.00704 10.7091 7.19449 11.1023 7.26579C11.4955 7.33708 11.9011 7.28895 12.2667 7.1276H12.3637C12.7222 6.97395 13.0279 6.71882 13.2433 6.39362C13.4586 6.06842 13.5742 5.68734 13.5758 5.2973V5.09123C13.5758 4.44829 13.8312 3.83167 14.2858 3.37704C14.7405 2.9224 15.3571 2.66699 16 2.66699C16.643 2.66699 17.2596 2.9224 17.7142 3.37704C18.1689 3.83167 18.4243 4.44829 18.4243 5.09123V5.20033C18.4258 5.59037 18.5414 5.97145 18.7568 6.29665C18.9721 6.62185 19.2779 6.87698 19.6364 7.03063C20.002 7.19198 20.4075 7.24011 20.8007 7.16882C21.1939 7.09752 21.5568 6.91007 21.8424 6.63063L21.9152 6.5579C22.1403 6.3325 22.4077 6.15369 22.702 6.0317C22.9963 5.9097 23.3117 5.8469 23.6303 5.8469C23.9489 5.8469 24.2644 5.9097 24.5587 6.0317C24.853 6.15369 25.1203 6.3325 25.3455 6.5579C25.5709 6.78305 25.7497 7.05041 25.8717 7.34471C25.9937 7.63901 26.0565 7.95447 26.0565 8.27305C26.0565 8.59164 25.9937 8.90709 25.8717 9.20139C25.7497 9.49569 25.5709 9.76306 25.3455 9.9882L25.2727 10.0609C24.9933 10.3466 24.8059 10.7094 24.7346 11.1026C24.6633 11.4958 24.7114 11.9014 24.8727 12.267V12.364C25.0264 12.7225 25.2815 13.0282 25.6067 13.2436C25.9319 13.459 26.313 13.5745 26.703 13.5761H26.9091C27.5521 13.5761 28.1687 13.8315 28.6233 14.2861C29.0779 14.7408 29.3334 15.3574 29.3334 16.0003C29.3334 16.6433 29.0779 17.2599 28.6233 17.7145C28.1687 18.1692 27.5521 18.4246 26.9091 18.4246H26.8C26.41 18.4261 26.0289 18.5417 25.7037 18.7571C25.3785 18.9724 25.1234 19.2782 24.9697 19.6367V19.6367Z"
		stroke="#353535" stroke-width="3" stroke-linecap="round" stroke-linejoin="round" />
</svg>
	